<svg width="465" height="465" viewBox="0 0 465 465" fill="none" xmlns="http://www.w3.org/2000/svg">
<circle cx="233" cy="233" r="46.5" stroke="#E0E5EA" stroke-width="15"/>
<mask id="path-2-outside-1_8_16" maskUnits="userSpaceOnUse" x="19" y="56" width="357" height="236" fill="black">
<rect fill="white" x="19" y="56" width="357" height="236"/>
<path fill-rule="evenodd" clip-rule="evenodd" d="M355.06 141.683L332.432 164.31L329.237 167.506C323.986 157.995 317.428 149.306 309.805 141.683C288.994 120.872 260.244 108 228.488 108C176.353 108 132.322 142.692 118.218 190.25H162.976L101.488 272L40 190.25H85.1729L85.5593 188.642C91.6658 163.239 104.432 139.923 122.544 121.093C140.656 102.264 163.46 88.6015 188.606 81.5133C213.753 74.4251 240.335 74.167 265.614 80.7656C290.894 87.3642 313.958 100.581 332.432 119.055L355.06 141.683Z"/>
</mask>
<path d="M332.432 164.31L318.29 150.168L318.29 150.168L332.432 164.31ZM355.06 141.683L369.202 155.825C377.013 148.014 377.013 135.351 369.202 127.541L355.06 141.683ZM329.237 167.506L311.727 177.171C314.764 182.674 320.212 186.429 326.436 187.309C332.659 188.189 338.934 186.093 343.379 181.648L329.237 167.506ZM309.805 141.683L323.947 127.541L323.947 127.541L309.805 141.683ZM118.218 190.25L99.0436 184.564C97.2493 190.614 98.4161 197.157 102.191 202.214C105.967 207.271 111.907 210.25 118.218 210.25V190.25ZM162.976 190.25L178.959 202.272C183.516 196.214 184.256 188.1 180.87 181.318C177.485 174.536 170.556 170.25 162.976 170.25V190.25ZM101.488 272L85.5043 284.022C89.2825 289.045 95.2023 292 101.488 292C107.773 292 113.693 289.045 117.471 284.022L101.488 272ZM40 190.25V170.25C32.4196 170.25 25.4907 174.536 22.1053 181.318C18.7199 188.1 19.4599 196.214 24.0165 202.272L40 190.25ZM85.1729 190.25V210.25C94.4179 210.25 102.458 203.914 104.619 194.925L85.1729 190.25ZM85.5593 188.642L105.005 193.317L105.005 193.317L85.5593 188.642ZM122.544 121.093L108.13 107.228L108.13 107.228L122.544 121.093ZM188.606 81.5133L194.032 100.763L194.032 100.763L188.606 81.5133ZM265.614 80.7656L260.563 100.117L260.563 100.117L265.614 80.7656ZM332.432 119.055L346.575 104.913L346.575 104.913L332.432 119.055ZM346.575 178.452L369.202 155.825L340.918 127.541L318.29 150.168L346.575 178.452ZM343.379 181.648L346.575 178.452L318.29 150.168L315.094 153.364L343.379 181.648ZM295.663 155.825C301.97 162.132 307.391 169.316 311.727 177.171L346.746 157.841C340.582 146.673 332.887 136.48 323.947 127.541L295.663 155.825ZM228.488 128C254.727 128 278.449 138.611 295.663 155.825L323.947 127.541C299.539 103.132 265.761 88 228.488 88V128ZM137.393 195.936C149.048 156.635 185.45 128 228.488 128V88C167.257 88 115.595 128.749 99.0436 184.564L137.393 195.936ZM162.976 170.25H118.218V210.25H162.976V170.25ZM117.471 284.022L178.959 202.272L146.992 178.228L85.5043 259.978L117.471 284.022ZM24.0165 202.272L85.5043 284.022L117.471 259.978L55.9835 178.228L24.0165 202.272ZM85.1729 170.25H40V210.25H85.1729V170.25ZM66.1133 183.968L65.7268 185.575L104.619 194.925L105.005 193.317L66.1133 183.968ZM108.13 107.228C87.5539 128.62 73.0505 155.109 66.1133 183.968L105.005 193.317C110.281 171.37 121.311 151.226 136.958 134.958L108.13 107.228ZM183.18 62.2634C154.612 70.316 128.707 85.837 108.13 107.228L136.958 134.958C152.606 118.69 172.307 106.887 194.032 100.763L183.18 62.2634ZM270.666 61.414C241.946 53.9176 211.748 54.2109 183.18 62.2634L194.032 100.763C215.758 94.6394 238.723 94.4164 260.563 100.117L270.666 61.414ZM346.575 104.913C325.587 83.9253 299.385 68.9103 270.666 61.414L260.563 100.117C282.403 105.818 302.33 117.237 318.29 133.197L346.575 104.913ZM369.202 127.541L346.575 104.913L318.29 133.197L340.918 155.825L369.202 127.541Z" fill="#00D5FF" mask="url(#path-2-outside-1_8_16)"/>
<mask id="path-4-outside-2_8_16" maskUnits="userSpaceOnUse" x="90.0598" y="174" width="357" height="236" fill="black">
<rect fill="white" x="90.0598" y="174" width="357" height="236"/>
<path fill-rule="evenodd" clip-rule="evenodd" d="M111 324.317L133.627 301.69L136.823 298.494C142.073 308.005 148.631 316.694 156.255 324.317C177.066 345.128 205.816 358 237.572 358C289.707 358 333.738 323.308 347.842 275.75H303.084L364.572 194L426.06 275.75H380.887L380.501 277.358C374.394 302.761 361.628 326.077 343.515 344.907C325.403 363.736 302.6 377.398 277.453 384.487C252.307 391.575 225.725 391.833 200.446 385.234C175.166 378.636 152.102 365.419 133.627 346.945L111 324.317Z"/>
</mask>
<path d="M133.627 301.69L147.769 315.832L147.77 315.832L133.627 301.69ZM111 324.317L96.8578 310.175C89.0473 317.986 89.0473 330.649 96.8578 338.459L111 324.317ZM136.823 298.494L154.333 288.829C151.295 283.326 145.848 279.571 139.624 278.691C133.401 277.811 127.125 279.907 122.681 284.352L136.823 298.494ZM156.255 324.317L142.113 338.459L142.113 338.459L156.255 324.317ZM347.842 275.75L367.016 281.436C368.81 275.386 367.644 268.843 363.868 263.786C360.093 258.729 354.153 255.75 347.842 255.75V275.75ZM303.084 275.75L287.101 263.728C282.544 269.786 281.804 277.9 285.19 284.682C288.575 291.464 295.504 295.75 303.084 295.75V275.75ZM364.572 194L380.556 181.978C376.777 176.955 370.858 174 364.572 174C358.287 174 352.367 176.955 348.588 181.978L364.572 194ZM426.06 275.75V295.75C433.64 295.75 440.569 291.464 443.954 284.682C447.34 277.9 446.6 269.786 442.043 263.728L426.06 275.75ZM380.887 275.75V255.75C371.642 255.75 363.602 262.086 361.441 271.075L380.887 275.75ZM380.501 277.358L361.054 272.683L361.054 272.683L380.501 277.358ZM343.515 344.907L357.93 358.772L357.93 358.772L343.515 344.907ZM277.453 384.487L272.027 365.237L272.027 365.237L277.453 384.487ZM200.446 385.234L205.497 365.883L205.497 365.883L200.446 385.234ZM133.627 346.945L119.485 361.087L119.485 361.087L133.627 346.945ZM119.485 287.548L96.8578 310.175L125.142 338.459L147.769 315.832L119.485 287.548ZM122.681 284.352L119.485 287.548L147.77 315.832L150.965 312.636L122.681 284.352ZM170.397 310.175C164.09 303.868 158.669 296.684 154.333 288.829L119.314 308.159C125.478 319.327 133.173 329.52 142.113 338.459L170.397 310.175ZM237.572 338C211.333 338 187.61 327.389 170.397 310.175L142.113 338.459C166.521 362.868 200.298 378 237.572 378V338ZM328.667 270.064C317.012 309.365 280.61 338 237.572 338V378C298.803 378 350.464 337.251 367.016 281.436L328.667 270.064ZM303.084 295.75H347.842V255.75L303.084 255.75V295.75ZM348.588 181.978L287.101 263.728L319.068 287.772L380.556 206.022L348.588 181.978ZM442.043 263.728L380.556 181.978L348.588 206.022L410.076 287.772L442.043 263.728ZM380.887 295.75H426.06V255.75H380.887V295.75ZM399.947 282.032L400.333 280.425L361.441 271.075L361.054 272.683L399.947 282.032ZM357.93 358.772C378.506 337.38 393.009 310.891 399.947 282.032L361.054 272.683C355.779 294.63 344.749 314.774 329.101 331.042L357.93 358.772ZM282.879 403.737C311.447 395.684 337.353 380.163 357.93 358.772L329.101 331.042C313.454 347.31 293.753 359.113 272.027 365.237L282.879 403.737ZM195.394 404.586C224.113 412.082 254.311 411.789 282.879 403.737L272.027 365.237C250.302 371.361 227.337 371.584 205.497 365.883L195.394 404.586ZM119.485 361.087C140.473 382.075 166.675 397.09 195.394 404.586L205.497 365.883C183.657 360.182 163.73 348.763 147.769 332.803L119.485 361.087ZM96.8578 338.459L119.485 361.087L147.769 332.803L125.142 310.175L96.8578 338.459Z" fill="#FF4F9B" mask="url(#path-4-outside-2_8_16)"/>
</svg>
