<?xml version="1.0" encoding="UTF-8"?>
<!DOCTYPE svg PUBLIC "-//W3C//DTD SVG 1.1//EN" "http://www.w3.org/Graphics/SVG/1.1/DTD/svg11.dtd">
<svg xmlns="http://www.w3.org/2000/svg" version="1.1" width="192px" height="192px" style="shape-rendering:geometricPrecision; text-rendering:geometricPrecision; image-rendering:optimizeQuality; fill-rule:evenodd; clip-rule:evenodd" xmlns:xlink="http://www.w3.org/1999/xlink">
<g><path style="opacity:0.989" fill="#372a72" d="M 89.5,-0.5 C 93.5,-0.5 97.5,-0.5 101.5,-0.5C 140.373,3.87454 167.873,23.8745 184,59.5C 191.18,79.4962 192.347,99.8295 187.5,120.5C 185.907,119.652 184.74,118.319 184,116.5C 183.601,116.728 183.435,117.062 183.5,117.5C 174.079,104.9 164.413,92.4 154.5,80C 151.5,79.3333 148.5,79.3333 145.5,80C 140.636,86.3552 135.636,92.5218 130.5,98.5C 129.791,97.596 128.791,97.2627 127.5,97.5C 126.565,76.729 115.732,65.0624 95,62.5C 89.1029,62.8546 83.6029,64.5213 78.5,67.5C 77.5832,66.8728 76.5832,66.5394 75.5,66.5C 72.3357,62.352 68.0023,60.352 62.5,60.5C 62.6236,59.8933 62.9569,59.56 63.5,59.5C 64.2506,60.5735 65.2506,60.7401 66.5,60C 71.7452,54.755 78.0785,51.4217 85.5,50C 105.104,45.802 119.771,52.4686 129.5,70C 133.997,72.1209 138.33,71.7875 142.5,69C 147.475,65.0299 151.309,60.1965 154,54.5C 154.333,54.8333 154.667,55.1667 155,55.5C 155.885,52.462 155.385,49.7954 153.5,47.5C 129.683,15.9519 99.3493,7.45195 62.5,22C 46.1944,30.7997 35.1944,43.9664 29.5,61.5C 24.1563,61.334 18.8229,61.5006 13.5,62C 7.19812,66.7301 6.86478,71.8968 12.5,77.5C 11.4265,78.2506 11.2599,79.2506 12,80.5C 18.6299,91.582 26.1299,102.082 34.5,112C 37.9316,114.072 41.5983,114.738 45.5,114C 47.9957,112.334 50.329,110.5 52.5,108.5C 55.8237,105.677 58.9904,102.677 62,99.5C 70.3205,124.994 86.9872,132.994 112,123.5C 114.375,126.394 116.875,129.228 119.5,132C 121.518,132.505 123.518,133.005 125.5,133.5C 121.398,138.728 116.065,142.228 109.5,144C 88.49,148.496 72.49,141.496 61.5,123C 58.9699,121.578 56.3033,121.245 53.5,122C 48.6667,126.833 43.8333,131.667 39,136.5C 38.2782,139.261 38.4448,141.927 39.5,144.5C 38.4138,144.62 37.7472,145.287 37.5,146.5C 59.3561,176.84 88.3561,186.34 124.5,175C 129.659,172.588 134.659,169.921 139.5,167C 144.701,161.799 149.867,156.633 155,151.5C 159.04,146.253 161.873,140.42 163.5,134C 168.769,132.894 174.103,132.227 179.5,132C 180.931,131.535 182.097,130.701 183,129.5C 183.399,129.728 183.565,130.062 183.5,130.5C 183.5,131.5 183.5,132.5 183.5,133.5C 160.911,176.797 125.244,195.297 76.5,189C 31.2582,176.993 5.59157,147.827 -0.5,101.5C -0.5,97.5 -0.5,93.5 -0.5,89.5C 3.89165,48.596 25.225,20.4293 63.5,5C 72.132,2.30848 80.7987,0.47515 89.5,-0.5 Z"/></g>
<g><path style="opacity:1" fill="#04cffa" d="M 153.5,47.5 C 153.662,49.5273 153.495,51.5273 153,53.5C 148.5,58 144,62.5 139.5,67C 136.5,69 133.5,69 130.5,67C 115.689,43.9541 96.0226,38.6208 71.5,51C 68.6286,53.7028 65.9619,56.5361 63.5,59.5C 62.9569,59.56 62.6236,59.8933 62.5,60.5C 68.0023,60.352 72.3357,62.352 75.5,66.5C 75.5,67.1667 75.5,67.8333 75.5,68.5C 75.628,70.6547 75.128,72.6547 74,74.5C 64.8333,86.3333 55.6667,98.1667 46.5,110C 43.0357,110.817 39.7024,110.483 36.5,109C 28.6365,98.3153 20.6365,87.8153 12.5,77.5C 6.86478,71.8968 7.19812,66.7301 13.5,62C 18.8229,61.5006 24.1563,61.334 29.5,61.5C 35.1944,43.9664 46.1944,30.7997 62.5,22C 99.3493,7.45195 129.683,15.9519 153.5,47.5 Z"/></g>
<g><path style="opacity:1" fill="#362b71" d="M 141.5,53.5 C 139.854,55.8122 137.854,57.8122 135.5,59.5C 120.76,38.6418 101.094,31.8085 76.5,39C 62.6619,44.998 53.6619,55.1647 49.5,69.5C 55.2055,69.1712 60.8722,69.5046 66.5,70.5C 58.5757,81.3467 50.409,92.0134 42,102.5C 34.8242,92.8037 27.6575,83.137 20.5,73.5C 25.8968,73.7846 31.2302,73.4512 36.5,72.5C 38.4396,65.9528 40.9396,59.6195 44,53.5C 66.2043,27.8264 93.3709,21.3264 125.5,34C 131.274,39.0836 136.941,44.4169 142.5,50C 141.663,51.0113 141.33,52.1779 141.5,53.5 Z"/></g>
<g><path style="opacity:1" fill="#2f2966" d="M 141.5,53.5 C 141.33,52.1779 141.663,51.0113 142.5,50C 136.941,44.4169 131.274,39.0836 125.5,34C 93.3709,21.3264 66.2043,27.8264 44,53.5C 40.9396,59.6195 38.4396,65.9528 36.5,72.5C 31.2302,73.4512 25.8968,73.7846 20.5,73.5C 19.6364,72.3117 18.6364,71.1451 17.5,70C 23.7482,69.8117 29.9149,69.3117 36,68.5C 43.7555,42.7477 60.9222,27.5811 87.5,23C 112.045,21.694 131.211,30.8607 145,50.5C 143.961,51.7101 142.794,52.7101 141.5,53.5 Z"/></g>
<g><path style="opacity:1" fill="#2e2763" d="M 153.5,47.5 C 155.385,49.7954 155.885,52.462 155,55.5C 154.667,55.1667 154.333,54.8333 154,54.5C 151.309,60.1965 147.475,65.0299 142.5,69C 138.33,71.7875 133.997,72.1209 129.5,70C 119.771,52.4686 105.104,45.802 85.5,50C 78.0785,51.4217 71.7452,54.755 66.5,60C 65.2506,60.7401 64.2506,60.5735 63.5,59.5C 65.9619,56.5361 68.6286,53.7028 71.5,51C 96.0226,38.6208 115.689,43.9541 130.5,67C 133.5,69 136.5,69 139.5,67C 144,62.5 148.5,58 153,53.5C 153.495,51.5273 153.662,49.5273 153.5,47.5 Z"/></g>
<g><path style="opacity:1" fill="#2f2661" d="M 75.5,68.5 C 77.0542,69.9142 78.3875,71.5808 79.5,73.5C 96.4457,64.4449 109.946,68.1116 120,84.5C 125.524,103.286 119.024,115.786 100.5,122C 80.2353,123.234 69.5686,113.734 68.5,93.5C 67.0222,93.238 65.6888,93.5713 64.5,94.5C 61.8439,97.3218 59.0105,99.9885 56,102.5C 54.5787,104.405 53.412,106.405 52.5,108.5C 50.329,110.5 47.9957,112.334 45.5,114C 41.5983,114.738 37.9316,114.072 34.5,112C 26.1299,102.082 18.6299,91.582 12,80.5C 11.2599,79.2506 11.4265,78.2506 12.5,77.5C 20.6365,87.8153 28.6365,98.3153 36.5,109C 39.7024,110.483 43.0357,110.817 46.5,110C 55.6667,98.1667 64.8333,86.3333 74,74.5C 75.128,72.6547 75.628,70.6547 75.5,68.5 Z"/></g>
<g><path style="opacity:1" fill="#d8dce4" d="M 89.5,73.5 C 103.205,71.9317 112.372,77.5984 117,90.5C 118.221,103.565 112.721,112.398 100.5,117C 87.3167,119.161 78.4834,113.995 74,101.5C 71.6461,87.8655 76.8128,78.5322 89.5,73.5 Z"/></g>
<g><path style="opacity:1" fill="#f94e99" d="M 183.5,117.5 C 183.874,120.972 182.874,123.972 180.5,126.5C 174.644,128.029 168.644,129.029 162.5,129.5C 147.783,163.702 121.783,178.535 84.5,174C 66.1895,169.185 51.1895,159.351 39.5,144.5C 38.4448,141.927 38.2782,139.261 39,136.5C 43.8333,131.667 48.6667,126.833 53.5,122C 56.3033,121.245 58.9699,121.578 61.5,123C 72.49,141.496 88.49,148.496 109.5,144C 116.065,142.228 121.398,138.728 125.5,133.5C 131.902,128.909 130.569,127.075 121.5,128C 118.586,126.091 116.919,123.425 116.5,120C 120.791,112.584 125.458,105.417 130.5,98.5C 135.636,92.5218 140.636,86.3552 145.5,80C 148.5,79.3333 151.5,79.3333 154.5,80C 164.413,92.4 174.079,104.9 183.5,117.5 Z"/></g>
<g><path style="opacity:1" fill="#2d235a" d="M 90.5,79.5 C 107.006,79.508 113.173,87.508 109,103.5C 100.401,113.713 91.4007,114.046 82,104.5C 76.8899,93.3997 79.7233,85.0664 90.5,79.5 Z"/></g>
<g><path style="opacity:1" fill="#392a71" d="M 173.5,118.5 C 174.043,118.56 174.376,118.893 174.5,119.5C 168.5,120.167 162.5,120.833 156.5,121.5C 145.083,154.725 121.75,169.558 86.5,166C 71.4273,162.418 59.094,154.584 49.5,142.5C 51.5616,140.436 53.895,138.769 56.5,137.5C 62.6141,143.716 69.2808,149.216 76.5,154C 95.312,161.544 112.979,159.544 129.5,148C 131.487,146.681 132.654,144.848 133,142.5C 134.667,141.167 136.333,139.833 138,138.5C 138.348,136.86 137.848,135.527 136.5,134.5C 139.467,130.271 141.467,125.604 142.5,120.5C 136.794,120.829 131.128,120.495 125.5,119.5C 125.624,118.893 125.957,118.56 126.5,118.5C 128.153,119.799 129.653,119.466 131,117.5C 136.228,108.608 142.561,100.608 150,93.5C 151.944,94.4394 153.611,95.7727 155,97.5C 159.974,104.641 165.14,111.641 170.5,118.5C 171.614,119.776 172.614,119.776 173.5,118.5 Z"/></g>
<g><path style="opacity:1" fill="#372664" d="M 173.5,118.5 C 172.614,119.776 171.614,119.776 170.5,118.5C 165.14,111.641 159.974,104.641 155,97.5C 153.611,95.7727 151.944,94.4394 150,93.5C 142.561,100.608 136.228,108.608 131,117.5C 129.653,119.466 128.153,119.799 126.5,118.5C 133.839,107.838 141.672,97.5042 150,87.5C 158.328,97.5042 166.161,107.838 173.5,118.5 Z"/></g>
<g><path style="opacity:1" fill="#322666" d="M 130.5,98.5 C 125.458,105.417 120.791,112.584 116.5,120C 116.919,123.425 118.586,126.091 121.5,128C 130.569,127.075 131.902,128.909 125.5,133.5C 123.518,133.005 121.518,132.505 119.5,132C 116.875,129.228 114.375,126.394 112,123.5C 86.9872,132.994 70.3205,124.994 62,99.5C 58.9904,102.677 55.8237,105.677 52.5,108.5C 53.412,106.405 54.5787,104.405 56,102.5C 59.0105,99.9885 61.8439,97.3218 64.5,94.5C 65.6888,93.5713 67.0222,93.238 68.5,93.5C 69.5686,113.734 80.2353,123.234 100.5,122C 119.024,115.786 125.524,103.286 120,84.5C 109.946,68.1116 96.4457,64.4449 79.5,73.5C 78.3875,71.5808 77.0542,69.9142 75.5,68.5C 75.5,67.8333 75.5,67.1667 75.5,66.5C 76.5832,66.5394 77.5832,66.8728 78.5,67.5C 83.6029,64.5213 89.1029,62.8546 95,62.5C 115.732,65.0624 126.565,76.729 127.5,97.5C 128.791,97.2627 129.791,97.596 130.5,98.5 Z"/></g>
<g><path style="opacity:0.011" fill="#010103" d="M 187.5,122.5 C 188.488,127.192 187.154,130.859 183.5,133.5C 183.5,132.5 183.5,131.5 183.5,130.5C 184.833,127.833 186.167,125.167 187.5,122.5 Z"/></g>
<g><path style="opacity:1" fill="#342564" d="M 187.5,120.5 C 187.5,121.167 187.5,121.833 187.5,122.5C 186.167,125.167 184.833,127.833 183.5,130.5C 183.565,130.062 183.399,129.728 183,129.5C 182.097,130.701 180.931,131.535 179.5,132C 174.103,132.227 168.769,132.894 163.5,134C 161.873,140.42 159.04,146.253 155,151.5C 149.867,156.633 144.701,161.799 139.5,167C 134.659,169.921 129.659,172.588 124.5,175C 88.3561,186.34 59.3561,176.84 37.5,146.5C 37.7472,145.287 38.4138,144.62 39.5,144.5C 51.1895,159.351 66.1895,169.185 84.5,174C 121.783,178.535 147.783,163.702 162.5,129.5C 168.644,129.029 174.644,128.029 180.5,126.5C 182.874,123.972 183.874,120.972 183.5,117.5C 183.435,117.062 183.601,116.728 184,116.5C 184.74,118.319 185.907,119.652 187.5,120.5 Z"/></g>
<g><path style="opacity:1" fill="#332564" d="M 136.5,134.5 C 137.848,135.527 138.348,136.86 138,138.5C 136.333,139.833 134.667,141.167 133,142.5C 132.654,144.848 131.487,146.681 129.5,148C 112.979,159.544 95.312,161.544 76.5,154C 69.2808,149.216 62.6141,143.716 56.5,137.5C 53.895,138.769 51.5616,140.436 49.5,142.5C 48.3734,141.878 47.3734,141.045 46.5,140C 50,136.5 53.5,133 57,129.5C 74.4096,155.07 96.9096,160.57 124.5,146C 129.029,142.636 133.029,138.803 136.5,134.5 Z"/></g>
</svg>
